<svg width="21" height="10" viewBox="0 0 21 10" fill="none" xmlns="http://www.w3.org/2000/svg">
<path d="M3.52958 1.3C4.19691 1.3 4.77625 1.41 5.26758 1.63C5.76625 1.85 6.14758 2.16533 6.41158 2.576C6.67558 2.98667 6.80758 3.47433 6.80758 4.039C6.80758 4.59633 6.67558 5.084 6.41158 5.502C6.14758 5.91267 5.76625 6.228 5.26758 6.448C4.77625 6.668 4.19691 6.778 3.52958 6.778H1.79158V9H0.361579V1.3H3.52958ZM3.46358 5.568C4.08691 5.568 4.55991 5.436 4.88258 5.172C5.20525 4.908 5.36658 4.53033 5.36658 4.039C5.36658 3.54767 5.20525 3.17 4.88258 2.906C4.55991 2.642 4.08691 2.51 3.46358 2.51H1.79158V5.568H3.46358ZM14.2751 0.838V9H12.9551V8.241C12.7278 8.51967 12.4455 8.72867 12.1081 8.868C11.7781 9.00733 11.4115 9.077 11.0081 9.077C10.4435 9.077 9.93378 8.95233 9.47912 8.703C9.03178 8.45367 8.67978 8.10167 8.42312 7.647C8.16645 7.185 8.03812 6.657 8.03812 6.063C8.03812 5.469 8.16645 4.94467 8.42312 4.49C8.67978 4.03533 9.03178 3.68333 9.47912 3.434C9.93378 3.18467 10.4435 3.06 11.0081 3.06C11.3968 3.06 11.7525 3.126 12.0751 3.258C12.3978 3.39 12.6728 3.588 12.9001 3.852V0.838H14.2751ZM11.1731 7.9C11.5031 7.9 11.8001 7.82667 12.0641 7.68C12.3281 7.526 12.5371 7.30967 12.6911 7.031C12.8451 6.75233 12.9221 6.42967 12.9221 6.063C12.9221 5.69633 12.8451 5.37367 12.6911 5.095C12.5371 4.81633 12.3281 4.60367 12.0641 4.457C11.8001 4.303 11.5031 4.226 11.1731 4.226C10.8431 4.226 10.5461 4.303 10.2821 4.457C10.0181 4.60367 9.80912 4.81633 9.65512 5.095C9.50112 5.37367 9.42412 5.69633 9.42412 6.063C9.42412 6.42967 9.50112 6.75233 9.65512 7.031C9.80912 7.30967 10.0181 7.526 10.2821 7.68C10.5461 7.82667 10.8431 7.9 11.1731 7.9ZM18.9009 1.872C18.3215 1.872 18.0319 2.18733 18.0319 2.818V3.17H19.6489V4.27H18.0759V9H16.7009V4.27H15.7329V3.17H16.7009V2.796C16.7009 2.16533 16.8842 1.67033 17.2509 1.311C17.6175 0.944333 18.1345 0.761 18.8019 0.761C19.3299 0.761 19.7442 0.867333 20.0449 1.08L19.6599 2.114C19.4252 1.95267 19.1722 1.872 18.9009 1.872Z" fill="#12C868"/>
</svg>
