<svg width="274" height="148" viewBox="0 0 274 148" fill="none" xmlns="http://www.w3.org/2000/svg">
<path d="M273 0.5H1L0.5 109V110.5L1 112L1.5 113.5L2 115L3 116.5L4 118L5 119.5L6 121L7 122L8 123L9 124L10.5 125L14.5 128L19.5 131L25.5 133.5L32 136L38 137.5L49.5 140.5L61 143L72 144.5L86 146L100 147L104.5 147.5H108.5H109.5H110.5L111.5 147L112.5 146.5L113.5 146L114.5 145L115.5 144L116.5 143L118 141L120 139L122 137L124 135.5L126 134L128.5 132.5L130.5 132L132.5 131.5H136H139.5L143 132L146 133L148.5 134L151.5 136L153.5 137.5L155.5 139.5L157 142L159 144.5L160 145.5L161 146.5L162 147L163 147.5H164L173 147L184.5 146L205 144L210.5 143.5L214 143L219.5 142L224.5 141L229 140L233 139L236 138L239 137L242 136L245 135L247.5 134L249.5 133L251.5 132L253.5 131L256.5 129.5L258.5 128.5L261 127L262.5 126L264 125L265.5 124L267.5 122L269.5 119.5L271.5 116.5L272.5 113.5L273.5 110.5L274 107L273 0.5Z" fill="white"/>
</svg>
