<svg width="103" height="10" viewBox="0 0 103 10" fill="none" xmlns="http://www.w3.org/2000/svg">
<path d="M8.05827 0.599999V9H6.52226V1.92H2.16626V9H0.630265V0.599999H8.05827ZM13.5949 9.084C12.9469 9.084 12.3629 8.944 11.8429 8.664C11.3229 8.384 10.9149 7.996 10.6189 7.5C10.3309 6.996 10.1869 6.428 10.1869 5.796C10.1869 5.164 10.3309 4.6 10.6189 4.104C10.9149 3.608 11.3229 3.22 11.8429 2.94C12.3629 2.66 12.9469 2.52 13.5949 2.52C14.2509 2.52 14.8389 2.66 15.3589 2.94C15.8789 3.22 16.2829 3.608 16.5709 4.104C16.8669 4.6 17.0149 5.164 17.0149 5.796C17.0149 6.428 16.8669 6.996 16.5709 7.5C16.2829 7.996 15.8789 8.384 15.3589 8.664C14.8389 8.944 14.2509 9.084 13.5949 9.084ZM13.5949 7.8C14.1469 7.8 14.6029 7.616 14.9629 7.248C15.3229 6.88 15.5029 6.396 15.5029 5.796C15.5029 5.196 15.3229 4.712 14.9629 4.344C14.6029 3.976 14.1469 3.792 13.5949 3.792C13.0429 3.792 12.5869 3.976 12.2269 4.344C11.8749 4.712 11.6989 5.196 11.6989 5.796C11.6989 6.396 11.8749 6.88 12.2269 7.248C12.5869 7.616 13.0429 7.8 13.5949 7.8ZM22.7109 5.664C23.1109 5.776 23.4189 5.96 23.6349 6.216C23.8589 6.464 23.9709 6.764 23.9709 7.116C23.9709 7.508 23.8389 7.856 23.5749 8.16C23.3109 8.456 22.9469 8.688 22.4829 8.856C22.0189 9.024 21.4909 9.108 20.8989 9.108C20.4029 9.108 19.9189 9.052 19.4469 8.94C18.9749 8.82 18.5469 8.652 18.1629 8.436L18.5949 7.32C18.9069 7.496 19.2589 7.632 19.6509 7.728C20.0429 7.824 20.4349 7.872 20.8269 7.872C21.3309 7.872 21.7229 7.796 22.0029 7.644C22.2909 7.484 22.4349 7.268 22.4349 6.996C22.4349 6.748 22.3229 6.556 22.0989 6.42C21.8829 6.284 21.5749 6.216 21.1749 6.216H19.9269V5.208H21.0549C21.4309 5.208 21.7229 5.144 21.9309 5.016C22.1469 4.888 22.2549 4.708 22.2549 4.476C22.2549 4.244 22.1269 4.06 21.8709 3.924C21.6149 3.788 21.2629 3.72 20.8149 3.72C20.1749 3.72 19.4989 3.876 18.7869 4.188L18.4029 3.084C19.2429 2.692 20.0909 2.496 20.9469 2.496C21.4909 2.496 21.9789 2.572 22.4109 2.724C22.8429 2.868 23.1789 3.076 23.4189 3.348C23.6669 3.612 23.7909 3.916 23.7909 4.26C23.7909 4.572 23.6949 4.852 23.5029 5.1C23.3109 5.34 23.0469 5.528 22.7109 5.664ZM30.6515 5.664C31.4435 5.904 31.8395 6.416 31.8395 7.2C31.8395 7.776 31.6235 8.22 31.1915 8.532C30.7595 8.844 30.1195 9 29.2715 9H26.0075V2.592H29.1395C29.9235 2.592 30.5355 2.736 30.9755 3.024C31.4155 3.312 31.6355 3.72 31.6355 4.248C31.6355 4.576 31.5475 4.86 31.3715 5.1C31.2035 5.34 30.9635 5.528 30.6515 5.664ZM27.4355 5.268H29.0075C29.7835 5.268 30.1715 5 30.1715 4.464C30.1715 3.944 29.7835 3.684 29.0075 3.684H27.4355V5.268ZM29.1515 7.908C29.9755 7.908 30.3875 7.64 30.3875 7.104C30.3875 6.824 30.2915 6.616 30.0995 6.48C29.9075 6.336 29.6075 6.264 29.1995 6.264H27.4355V7.908H29.1515ZM36.7731 9.084C36.1251 9.084 35.5411 8.944 35.0211 8.664C34.5011 8.384 34.0931 7.996 33.7971 7.5C33.5091 6.996 33.3651 6.428 33.3651 5.796C33.3651 5.164 33.5091 4.6 33.7971 4.104C34.0931 3.608 34.5011 3.22 35.0211 2.94C35.5411 2.66 36.1251 2.52 36.7731 2.52C37.4291 2.52 38.0171 2.66 38.5371 2.94C39.0571 3.22 39.4611 3.608 39.7491 4.104C40.0451 4.6 40.1931 5.164 40.1931 5.796C40.1931 6.428 40.0451 6.996 39.7491 7.5C39.4611 7.996 39.0571 8.384 38.5371 8.664C38.0171 8.944 37.4291 9.084 36.7731 9.084ZM36.7731 7.8C37.3251 7.8 37.7811 7.616 38.1411 7.248C38.5011 6.88 38.6811 6.396 38.6811 5.796C38.6811 5.196 38.5011 4.712 38.1411 4.344C37.7811 3.976 37.3251 3.792 36.7731 3.792C36.2211 3.792 35.7651 3.976 35.4051 4.344C35.0531 4.712 34.8771 5.196 34.8771 5.796C34.8771 6.396 35.0531 6.88 35.4051 7.248C35.7651 7.616 36.2211 7.8 36.7731 7.8ZM42.155 2.592H43.655V5.196H46.883V2.592H48.383V9H46.883V6.468H43.655V9H42.155V2.592ZM50.8732 2.592H52.3732V6.816L55.9132 2.592H57.2812V9H55.7812V4.776L52.2532 9H50.8732V2.592ZM64.855 3.864H62.611V9H61.111V3.864H58.855V2.592H64.855V3.864ZM72.1418 5.832C72.1418 5.936 72.1338 6.084 72.1178 6.276H67.0898C67.1778 6.748 67.4058 7.124 67.7738 7.404C68.1498 7.676 68.6138 7.812 69.1658 7.812C69.8698 7.812 70.4498 7.58 70.9058 7.116L71.7098 8.04C71.4218 8.384 71.0578 8.644 70.6178 8.82C70.1778 8.996 69.6818 9.084 69.1298 9.084C68.4258 9.084 67.8058 8.944 67.2698 8.664C66.7338 8.384 66.3178 7.996 66.0218 7.5C65.7338 6.996 65.5898 6.428 65.5898 5.796C65.5898 5.172 65.7298 4.612 66.0098 4.116C66.2978 3.612 66.6938 3.22 67.1978 2.94C67.7018 2.66 68.2698 2.52 68.9018 2.52C69.5258 2.52 70.0818 2.66 70.5698 2.94C71.0658 3.212 71.4498 3.6 71.7218 4.104C72.0018 4.6 72.1418 5.176 72.1418 5.832ZM68.9018 3.72C68.4218 3.72 68.0138 3.864 67.6778 4.152C67.3498 4.432 67.1498 4.808 67.0778 5.28H70.7138C70.6498 4.816 70.4538 4.44 70.1258 4.152C69.7978 3.864 69.3898 3.72 68.9018 3.72ZM84.3589 9V4.752L82.1989 8.328H81.5509L79.4269 4.74V9H78.0589V2.592H79.6309L81.9109 6.6L84.2989 2.592H85.7029L85.7149 9H84.3589ZM88.2068 2.592H89.7068V5.196H92.9348V2.592H94.4348V9H92.9348V6.468H89.7068V9H88.2068V2.592ZM102.925 5.832C102.925 5.936 102.917 6.084 102.901 6.276H97.8731C97.9611 6.748 98.1891 7.124 98.5571 7.404C98.9331 7.676 99.3971 7.812 99.9491 7.812C100.653 7.812 101.233 7.58 101.689 7.116L102.493 8.04C102.205 8.384 101.841 8.644 101.401 8.82C100.961 8.996 100.465 9.084 99.9131 9.084C99.2091 9.084 98.5891 8.944 98.0531 8.664C97.5171 8.384 97.1011 7.996 96.8051 7.5C96.5171 6.996 96.3731 6.428 96.3731 5.796C96.3731 5.172 96.5131 4.612 96.7931 4.116C97.0811 3.612 97.4771 3.22 97.9811 2.94C98.4851 2.66 99.0531 2.52 99.6851 2.52C100.309 2.52 100.865 2.66 101.353 2.94C101.849 3.212 102.233 3.6 102.505 4.104C102.785 4.6 102.925 5.176 102.925 5.832ZM99.6851 3.72C99.2051 3.72 98.7971 3.864 98.4611 4.152C98.1331 4.432 97.9331 4.808 97.8611 5.28H101.497C101.433 4.816 101.237 4.44 100.909 4.152C100.581 3.864 100.173 3.72 99.6851 3.72Z" fill="#12C868"/>
</svg>
