<svg width="374" height="248" viewBox="0 0 374 248" fill="none" xmlns="http://www.w3.org/2000/svg">
<g filter="url(#filter0_d_1_1125)">
<path d="M187 25H50V129.073C50 138.022 54.4674 146.474 61.913 151.446C84.4155 166.195 128.097 171.332 157.383 172.99C160.857 173.155 164.167 171.332 165.987 168.349C170.289 161.223 178.065 156.417 187 156.417C195.935 156.417 203.711 161.223 208.013 168.349C209.833 171.332 213.143 173.155 216.617 172.99C245.903 171.167 289.585 166.195 312.087 151.446C319.533 146.474 324 138.188 324 129.073V25H187Z" fill="white"/>
</g>
<defs>
<filter id="filter0_d_1_1125" x="0" y="0" width="374" height="248" filterUnits="userSpaceOnUse" color-interpolation-filters="sRGB">
<feFlood flood-opacity="0" result="BackgroundImageFix"/>
<feColorMatrix in="SourceAlpha" type="matrix" values="0 0 0 0 0 0 0 0 0 0 0 0 0 0 0 0 0 0 127 0" result="hardAlpha"/>
<feOffset dy="25"/>
<feGaussianBlur stdDeviation="25"/>
<feComposite in2="hardAlpha" operator="out"/>
<feColorMatrix type="matrix" values="0 0 0 0 0 0 0 0 0 0 0 0 0 0 0 0 0 0 0.03 0"/>
<feBlend mode="normal" in2="BackgroundImageFix" result="effect1_dropShadow_1_1125"/>
<feBlend mode="normal" in="SourceGraphic" in2="effect1_dropShadow_1_1125" result="shape"/>
</filter>
</defs>
</svg>
